PathFileType	4	(X/Y/Z)	 s03c0202.trc
DataRate	CameraRate	NumFrames	NumMarkers	Units	OrigDataRate	OrigDataStartFrame	OrigNumFrames
200	200	6	52	mm	200	501	2000
Frame#	Time	racr			lacr			c7			jug			rlel			rdr			llel			ldr			s2			lic			ric			lasi			rasi			rpsi			lpsi			rgt			lgt			rth1			rth2			rth3			rth4			rlfc			rmfc			rsh1			rsh2			rsh3			rsh4			rlmal			rmmal			rcal			rtoe			rmt5			rmt1			lth1			lth2			lth4			lth3			llfc			lmfc			lsh1			lsh2			lsh3			lsh4			llmal			lmmal			lcal			ltoe			lmt1			lmt5			SBIKE			LBIKE			RBIKE			
		X1	Y1	Z1	X2	Y2	Z2	X3	Y3	Z3	X4	Y4	Z4	X5	Y5	Z5	X6	Y6	Z6	X7	Y7	Z7	X8	Y8	Z8	X9	Y9	Z9	X10	Y10	Z10	X11	Y11	Z11	X12	Y12	Z12	X13	Y13	Z13	X14	Y14	Z14	X15	Y15	Z15	X16	Y16	Z16	X17	Y17	Z17	X18	Y18	Z18	X19	Y19	Z19	X20	Y20	Z20	X21	Y21	Z21	X22	Y22	Z22	X23	Y23	Z23	X24	Y24	Z24	X25	Y25	Z25	X26	Y26	Z26	X27	Y27	Z27	X28	Y28	Z28	X29	Y29	Z29	X30	Y30	Z30	X31	Y31	Z31	X32	Y32	Z32	X33	Y33	Z33	X34	Y34	Z34	X35	Y35	Z35	X36	Y36	Z36	X37	Y37	Z37	X38	Y38	Z38	X39	Y39	Z39	X40	Y40	Z40	X41	Y41	Z41	X42	Y42	Z42	X43	Y43	Z43	X44	Y44	Z44	X45	Y45	Z45	X46	Y46	Z46	X47	Y47	Z47	X48	Y48	Z48	X49	Y49	Z49	X50	Y50	Z50	X51	Y51	Z51	X52	Y52	Z52	
501	2.5050	539.175034	1380.329745	-79.784547	531.603075	1394.204134	-386.022812	465.298320	1470.255497	-228.464969	469.971987	1297.411786	-232.153430	546.421157	1176.478343	115.314419	722.149261	992.079807	-6.652584	561.629433	1191.011815	-576.271935	722.154797	980.472268	-456.364417	-72.824744	1208.438101	-226.440217	101.276569	1233.765630	-399.708514	93.641904	1236.077303	-38.857177	122.326557	1170.036160	-363.443443	119.994975	1165.606952	-83.861254	-44.935971	1257.987814	-178.790173	-39.472051	1259.229407	-261.210993	29.934237	1119.836386	-31.908685	52.189934	1150.790345	-429.011891	105.300698	967.975540	-13.239102	174.354868	911.896090	-9.600103	209.062842	833.767694	-20.222185	204.061358	933.775465	-13.890648	272.852786	725.427334	-48.879335	287.658570	711.735644	-164.269434	249.436849	559.160185	-22.921625	263.488191	471.639010	-35.942003	230.998770	389.486978	-40.787395	293.914656	471.183516	-60.339303	207.113919	258.508671	-61.143726	232.288573	272.749299	-145.586028	151.475605	208.844976	-98.299483	461.905289	223.924455	-108.345020	346.424515	193.224061	-34.400842	367.590341	221.354281	-147.273868	166.988982	1070.245952	-459.087243	250.530055	1051.778509	-469.914251	268.787057	1081.710508	-457.993305	315.507791	990.535060	-478.985247	434.338431	919.366301	-472.010224	440.092132	905.255864	-340.048190	308.590935	799.827023	-475.497368	266.513809	730.531877	-447.230915	188.357622	686.959970	-434.045634	291.651173	711.769760	-425.348769	94.228130	610.622635	-403.222145	132.102157	609.937431	-316.541372	17.641849	605.306420	-353.270291	265.300982	419.608976	-352.356302	186.677814	469.528210	-308.923371	155.794820	470.794442	-425.221983	-213.541407	946.145038	-230.307117	-5.894981	83.991035	-435.072686	-11.047395	80.630940	-34.741020	
502	2.5100	540.480824	1381.323995	-83.123415	529.294252	1394.317508	-389.370812	465.009802	1470.946006	-231.231325	469.418410	1297.703233	-234.830160	548.460935	1178.326310	113.341836	722.929558	992.389945	-7.576925	559.504976	1189.723691	-577.517403	722.585415	980.449831	-456.761385	-72.677013	1209.086212	-222.609652	99.485670	1234.714257	-397.937911	95.680874	1236.177048	-37.096393	121.947054	1171.061971	-361.673082	121.520436	1166.278254	-82.263334	-44.079531	1258.368178	-175.032192	-39.703012	1259.596103	-257.279662	30.749525	1119.390109	-29.658915	51.555632	1152.755033	-426.333227	103.056912	966.531559	-11.103247	170.937012	909.124424	-7.472693	204.166406	830.419683	-18.323861	201.069236	930.496141	-11.730167	265.881266	721.138220	-47.762796	281.283134	707.862281	-162.911683	242.115273	554.978351	-22.086984	256.058759	467.390455	-35.215492	223.519333	385.400123	-40.337607	286.627425	467.001843	-59.431450	199.759264	254.540722	-61.641083	227.518273	269.384239	-144.301568	143.886465	206.025591	-98.569896	454.526343	215.546797	-108.355008	338.535346	186.755423	-34.601227	360.335431	214.684594	-147.340851	167.434362	1073.465453	-457.469686	251.201212	1056.023179	-468.446080	269.114432	1086.076782	-456.237187	316.861255	995.594322	-477.799798	436.668964	926.232539	-471.412801	443.685314	911.138181	-338.716224	311.215140	806.622897	-473.830389	269.352763	737.200646	-446.153706	191.356366	693.463074	-432.898412	294.541331	718.447485	-424.463742	97.850191	616.080374	-402.162909	135.939004	615.992148	-315.891867	21.191681	608.569846	-351.591791	273.975596	429.850877	-353.000217	193.542312	477.429347	-309.582540	162.467220	478.075322	-424.970469	-213.567929	946.207912	-230.138567	-5.918545	84.026318	-435.069559	-11.057808	80.618005	-34.726193	
503	2.5150	542.078169	1382.092182	-85.600228	526.726883	1394.124889	-392.085755	464.581131	1471.211650	-233.595299	468.781231	1298.029390	-237.765149	550.560481	1180.096110	111.492303	723.784651	992.818289	-8.905884	557.329054	1188.343186	-578.611682	722.902810	980.554851	-457.495671	-72.576539	1209.779320	-217.862953	97.761429	1235.722059	-396.504156	97.481184	1236.418177	-35.535278	121.429568	1172.131386	-359.856821	122.470706	1166.953641	-81.184025	-43.582947	1258.840983	-171.322989	-39.044405	1259.322591	-254.523862	31.585840	1119.089553	-27.322732	51.000253	1154.787467	-423.690127	100.921769	965.528269	-8.978150	167.785740	906.763636	-5.322783	199.601756	827.580769	-16.460996	198.572524	927.868932	-9.524530	259.122931	717.432461	-46.517353	275.224636	704.475541	-161.665410	235.064038	551.320686	-21.283577	248.896854	463.739656	-34.638502	216.214849	381.795765	-39.887343	279.475221	463.392783	-58.737146	192.225690	251.236008	-61.430902	220.423385	266.101909	-143.896443	136.034019	203.815381	-98.685794	446.714145	207.850939	-108.409910	330.172728	180.949377	-34.772203	352.701236	208.616875	-147.444712	167.913757	1076.748724	-455.715819	251.881541	1060.398183	-466.952745	269.490324	1090.510456	-454.390900	318.268619	1000.711793	-476.504414	438.866557	933.038294	-470.450470	445.996371	917.589005	-339.016503	313.823186	813.302485	-472.544878	272.465206	743.514176	-445.244136	194.736795	699.179075	-431.822841	297.719000	724.347522	-422.932760	101.993690	620.839858	-401.108580	141.238257	620.720290	-315.157766	25.222524	611.318162	-350.435603	282.781958	439.431603	-353.374602	200.932112	485.036334	-309.553306	169.818883	484.947036	-424.654723	-213.612264	946.269348	-229.960679	-5.958432	84.067178	-435.043742	-11.088061	80.625393	-34.708088	
504	2.5200	543.252948	1382.971950	-89.025778	524.188405	1394.201610	-395.204311	464.161722	1471.748920	-236.330340	468.255949	1298.497687	-241.106518	552.565827	1181.820379	109.504125	724.771331	993.280773	-10.067969	555.033356	1186.924365	-579.617294	723.245429	980.679268	-458.220614	-72.520254	1210.434225	-213.873734	96.310481	1236.800474	-395.366993	99.257138	1236.875722	-33.956160	120.728244	1173.118987	-357.936194	123.932914	1167.609266	-79.560243	-43.139397	1259.381886	-167.731089	-39.358950	1259.910560	-250.782504	32.235082	1118.848573	-25.149396	50.638413	1156.882750	-421.210999	98.969439	964.799599	-6.884383	164.809033	904.994953	-3.188070	195.328643	825.204067	-14.620216	196.106874	925.166324	-7.513355	252.946307	714.163186	-45.398415	269.494990	701.492924	-160.501634	228.274638	548.199019	-20.540308	241.839084	460.663218	-34.072726	208.999759	378.776972	-39.510043	272.467689	460.130104	-58.172560	184.495238	248.441063	-61.439082	213.147519	263.305989	-143.517239	127.762173	202.208178	-98.783774	438.594342	200.666411	-108.433194	321.523626	175.650490	-34.935086	344.705313	203.093607	-147.414051	168.420472	1080.219676	-453.840223	252.543808	1064.809008	-465.356896	269.823881	1095.048153	-452.460045	319.572829	1005.835397	-475.078198	440.827972	939.750455	-469.406961	448.596506	923.646119	-338.061803	316.524102	819.527285	-471.240821	275.799716	749.196952	-444.133849	198.496401	704.217977	-430.754738	301.211062	730.195316	-422.050647	106.647109	624.807118	-400.136484	146.227513	624.959434	-314.234278	29.771417	613.276416	-349.290705	291.610763	448.600164	-353.486263	209.285144	491.695756	-309.152238	177.577534	491.099670	-424.325716	-213.665854	946.292783	-229.779945	-5.967843	84.094097	-435.031933	-11.427495	81.085181	-34.664596	
505	2.5250	544.397368	1383.824331	-92.421932	521.595987	1394.172464	-398.191352	463.715783	1472.115272	-238.929646	467.879110	1299.020302	-243.423067	554.782348	1183.626006	107.607563	725.945351	993.698009	-10.998748	552.724497	1185.449994	-580.459027	723.803768	981.031812	-458.903173	-72.569110	1211.074662	-210.001736	94.863491	1237.956741	-394.312092	100.693173	1237.850696	-31.614178	119.882825	1174.076978	-355.955297	125.405217	1168.627052	-77.735254	-42.743359	1259.959074	-164.265424	-39.671486	1260.595861	-247.164232	32.744269	1118.808167	-23.043139	50.330832	1159.086041	-418.745407	97.259748	964.240837	-4.795533	161.962919	903.612103	-0.738286	191.335058	823.256995	-12.781599	193.223100	923.463908	-5.098105	247.215803	711.444521	-44.324307	264.163666	698.967146	-159.414983	221.753585	545.563160	-19.817390	234.888842	458.072319	-33.569326	201.727644	376.305251	-39.133034	265.571726	457.379190	-57.595821	176.658332	246.194763	-61.284733	205.691576	260.976891	-143.042858	119.405189	201.186799	-98.722503	430.010053	194.228891	-108.431880	312.551042	171.035316	-35.023243	335.527411	197.367537	-147.859122	168.851575	1083.872545	-451.863774	253.146336	1069.304861	-463.600382	270.187727	1099.553189	-450.435631	320.721945	1011.071119	-473.722724	442.567784	946.412592	-468.280496	450.947022	929.687166	-336.698496	319.448395	825.201133	-469.935432	279.507771	754.325961	-443.077917	202.645864	708.451664	-429.765813	304.590053	735.374053	-420.620650	111.788894	627.809719	-399.383949	151.550451	628.292194	-313.284929	35.267778	614.593314	-347.952435	300.895661	456.915044	-353.624326	217.739319	497.909637	-308.960320	185.702809	496.641386	-424.024237	-213.721189	946.298156	-229.621249	-5.952925	84.127233	-435.025591	-11.071221	80.645481	-34.706374	
506	2.5300	545.585622	1384.348479	-95.822687	519.111911	1394.615629	-402.661522	463.213103	1472.439980	-241.521760	467.318803	1299.534198	-245.880445	557.029716	1185.325160	105.534732	727.174056	994.164261	-11.750706	550.296153	1183.927702	-581.230134	724.230467	981.253683	-459.649064	-72.754787	1211.909608	-206.154530	94.293780	1239.842632	-395.696322	102.264946	1238.430691	-30.362745	119.075029	1175.154473	-354.085789	126.693255	1169.607794	-76.226446	-42.504744	1260.705031	-160.996062	-40.018576	1261.454667	-243.619763	33.140509	1119.016208	-20.899515	50.023932	1161.525545	-416.343864	95.780384	964.090370	-2.731767	159.760929	902.467055	1.222378	187.809848	821.717667	-10.999324	191.121260	921.997276	-3.081615	241.950089	709.080403	-43.317731	259.124022	696.979167	-158.640091	215.507182	543.665233	-19.201557	228.005718	456.100814	-33.148789	194.388049	374.532530	-38.725921	258.774637	455.181905	-57.037549	168.493387	244.647003	-61.058894	197.930192	259.207437	-142.477565	110.751958	200.676165	-98.655323	421.085614	188.202423	-108.364484	303.220704	166.943556	-35.090852	326.784291	193.078826	-147.912100	169.165068	1087.690260	-449.879760	253.607873	1073.785454	-461.741080	270.411768	1104.085594	-448.302366	321.645222	1016.137070	-472.200490	444.005457	952.911220	-467.039855	453.078975	935.904562	-335.348634	322.430280	830.419091	-468.668633	283.382373	758.904537	-442.035029	207.081395	712.147698	-428.816390	309.271157	740.320509	-420.194074	117.264032	630.097046	-398.681587	157.017326	630.717606	-312.813211	40.744842	615.108031	-347.275847	310.670423	464.645806	-353.541982	226.395584	503.495671	-308.794703	194.370572	501.691327	-423.851392	-213.740589	946.315945	-229.367835	-5.966900	84.076789	-435.073172	-11.416839	81.067230	-34.653514	
